<svg width="50" height="51" viewBox="0 0 50 51" fill="none" xmlns="http://www.w3.org/2000/svg">
<mask id="mask0_384_453" style="mask-type:alpha" maskUnits="userSpaceOnUse" x="0" y="0" width="50" height="51">
<rect y="0.0253906" width="50" height="50" fill="#D9D9D9"/>
</mask>
<g mask="url(#mask0_384_453)">
<path d="M19.1106 45.2219C17.5134 45.2219 16.1144 44.7385 14.9139 43.7716C13.7133 42.8047 12.8859 41.5654 12.4319 40.0536C12.0099 40.7561 11.4269 41.2936 10.6831 41.6662C9.93922 42.0388 9.15597 42.2251 8.33333 42.2251C6.88299 42.2251 5.65234 41.7187 4.64141 40.706C3.63047 39.6933 3.125 38.4635 3.125 37.0168C3.125 35.7374 3.57104 34.5722 4.46313 33.5211C5.35521 32.4701 6.48101 31.938 7.84052 31.9246C7.14073 31.2836 6.58719 30.5123 6.1799 29.6109C5.77257 28.7095 5.56891 27.7713 5.56891 26.7964C5.56891 25.6406 5.85135 24.557 6.41625 23.5457C6.98115 22.5344 7.77241 21.7002 8.79005 21.0432C8.88474 21.3504 9.01259 21.6789 9.17359 22.0288C9.33457 22.3787 9.49918 22.6939 9.66745 22.9743C9.02109 23.4631 8.53233 24.0456 8.20115 24.7218C7.86993 25.398 7.70432 26.1069 7.70432 26.8485C7.70432 29.0066 8.50293 30.3982 10.1002 31.0232C11.6974 31.6482 13.3413 32.1263 15.032 32.4574L15.5008 33.2828C15.1188 34.3939 14.809 35.3334 14.5713 36.1013C14.3336 36.8692 14.2147 37.579 14.2147 38.2307C14.2147 39.5288 14.685 40.6646 15.6255 41.6382C16.5661 42.6117 17.7144 43.0985 19.0705 43.0985C20.5502 43.0985 21.7641 42.5416 22.7123 41.4278C23.6605 40.314 24.4391 38.9919 25.0481 37.4615C25.657 35.931 26.1291 34.3565 26.4643 32.7379C26.7995 31.1193 27.0806 29.7959 27.3077 28.7676L29.367 29.3405C29.0812 30.716 28.7393 32.3173 28.3414 34.1442C27.9434 35.9711 27.3765 37.7025 26.6406 39.3385C25.9048 40.9744 24.9393 42.364 23.744 43.5071C22.5488 44.6503 21.0043 45.2219 19.1106 45.2219ZM8.33333 40.1417C9.19069 40.1417 9.92587 39.8352 10.5389 39.2222C11.1518 38.6093 11.4583 37.8741 11.4583 37.0168C11.4583 36.1594 11.1518 35.4242 10.5389 34.8113C9.92587 34.1983 9.19069 33.8918 8.33333 33.8918C7.47594 33.8918 6.74076 34.1983 6.12781 34.8113C5.51483 35.4242 5.20833 36.1594 5.20833 37.0168C5.20833 37.8741 5.51483 38.6093 6.12781 39.2223C6.74076 39.8353 7.47594 40.1417 8.33333 40.1417ZM21.0016 31.552C19.5913 30.2886 18.3019 29.1074 17.1334 28.0083C15.9649 26.9092 14.9553 25.8315 14.1047 24.7751C13.2541 23.7188 12.6003 22.6624 12.1435 21.606C11.6867 20.5497 11.4583 19.45 11.4583 18.3068C11.4583 16.343 12.1306 14.6888 13.4751 13.3444C14.8195 11.9999 16.4736 11.3277 18.4375 11.3277C18.8168 11.3277 19.1586 11.3497 19.4631 11.3938C19.7676 11.4378 20.0561 11.4999 20.3285 11.5801C20.1629 11.2595 20.032 10.93 19.9359 10.5914C19.8397 10.2527 19.7917 9.8972 19.7917 9.52474C19.7917 8.078 20.2976 6.84827 21.3094 5.83552C22.3212 4.82278 23.5498 4.31641 24.9953 4.31641C26.4408 4.31641 27.671 4.82278 28.6859 5.83552C29.7008 6.84827 30.2083 8.078 30.2083 9.52474C30.2083 9.90668 30.1603 10.2626 30.0641 10.5924C29.968 10.9223 29.8371 11.2475 29.6715 11.568C29.9439 11.4879 30.2324 11.4278 30.5369 11.3878C30.8414 11.3477 31.1832 11.3277 31.5625 11.3277C33.1384 11.3277 34.5152 11.7757 35.6931 12.6718C36.871 13.5679 37.679 14.7117 38.117 16.1033C37.7896 16.0526 37.4213 16.0272 37.0121 16.0272C36.6028 16.0272 36.2286 16.0486 35.8894 16.0913C35.5128 15.2927 34.9432 14.6463 34.1807 14.1522C33.4181 13.6581 32.5513 13.411 31.5802 13.411C30.273 13.411 29.2341 13.7469 28.4635 14.4186C27.693 15.0903 26.6907 16.1434 25.4567 17.5777H24.4912C23.2225 16.1006 22.2028 15.0369 21.4323 14.3866C20.6617 13.7362 19.6635 13.411 18.4375 13.411C17.0261 13.411 15.8573 13.8741 14.931 14.8004C14.0048 15.7266 13.5417 16.8954 13.5417 18.3068C13.5417 19.114 13.7473 19.9474 14.1586 20.8072C14.57 21.667 15.1616 22.5743 15.9335 23.5292C16.7055 24.484 17.6416 25.4997 18.742 26.576C19.8424 27.6524 21.0911 28.8156 22.488 30.0656L21.0016 31.552ZM25 12.6497C25.8574 12.6497 26.5925 12.3432 27.2055 11.7303C27.8185 11.1173 28.125 10.3821 28.125 9.52474C28.125 8.66738 27.8185 7.93221 27.2055 7.31922C26.5925 6.70624 25.8574 6.39974 25 6.39974C24.1426 6.39974 23.4075 6.70624 22.7945 7.31922C22.1815 7.93221 21.875 8.66738 21.875 9.52474C21.875 10.3821 22.1815 11.1173 22.7945 11.7303C23.4075 12.3432 24.1426 12.6497 25 12.6497ZM30.7572 45.262C30.2629 45.262 29.7743 45.2091 29.2912 45.1033C28.8082 44.9975 28.342 44.8301 27.8926 44.6009C28.0857 44.3512 28.2788 44.057 28.4718 43.7182C28.6649 43.3794 28.8404 43.0673 28.9984 42.782C29.3069 42.91 29.6154 43.0014 29.9239 43.0563C30.2324 43.1111 30.5409 43.1385 30.8494 43.1385C32.2009 43.1385 33.3567 42.653 34.3169 41.682C35.2771 40.711 35.7572 39.5565 35.7572 38.2187C35.7572 37.567 35.6383 36.8639 35.4006 36.1093C35.1629 35.3548 34.8531 34.4219 34.4711 33.3108L34.9799 32.4855C36.7054 32.1543 38.3581 31.6695 39.9379 31.0312C41.5178 30.3928 42.3077 28.9946 42.3077 26.8365C42.3077 25.1538 41.7154 23.9065 40.5308 23.0945C39.3463 22.2825 38.0128 21.8766 36.5305 21.8766C35.1304 21.8766 33.497 22.1143 31.6303 22.5897C29.7635 23.0651 27.6082 23.7101 25.1643 24.5248L24.5914 22.4655C26.9792 21.7043 29.1285 21.0552 31.0394 20.5183C32.9502 19.9815 34.7045 19.7131 36.3021 19.7131C38.4041 19.7131 40.2778 20.3314 41.9231 21.568C43.5684 22.8047 44.391 24.5608 44.391 26.8365C44.391 27.7999 44.1941 28.7152 43.8001 29.5823C43.4061 30.4494 42.8593 31.2302 42.1595 31.9246C43.519 31.9647 44.6448 32.4968 45.5369 33.5211C46.429 34.5455 46.875 35.7107 46.875 37.0168C46.875 38.4324 46.3695 39.6543 45.3586 40.6827C44.3477 41.711 43.117 42.2251 41.6667 42.2251C40.844 42.2251 40.0608 42.0388 39.3169 41.6662C38.5731 41.2936 37.9901 40.7561 37.5681 40.0536C37.1141 41.5654 36.2734 42.8114 35.0461 43.7916C33.8188 44.7718 32.3892 45.262 30.7572 45.262ZM41.7187 40.1417C42.5761 40.1417 43.3026 39.8352 43.8982 39.2222C44.4939 38.6093 44.7917 37.8741 44.7917 37.0168C44.7917 36.1594 44.4852 35.4156 43.8722 34.7852C43.2592 34.1549 42.5241 33.8397 41.6667 33.8397C40.8093 33.8397 40.0741 34.1462 39.4611 34.7592C38.8482 35.3722 38.5417 36.1073 38.5417 36.9647C38.5417 37.822 38.8568 38.5659 39.4872 39.1962C40.1175 39.8266 40.8614 40.1417 41.7187 40.1417Z" fill="#7D8A58"/>
</g>
</svg>
