<svg width="56" height="63" viewBox="0 0 56 63" fill="none" xmlns="http://www.w3.org/2000/svg">
<path d="M13 11.25C13 10.9185 12.8683 10.6005 12.6339 10.3661C12.3995 10.1317 12.0815 10 11.75 10C11.4185 10 11.1005 10.1317 10.8661 10.3661C10.6317 10.6005 10.5 10.9185 10.5 11.25V17.5C10.5 18.3777 10.7311 19.2399 11.1699 19.9999C11.6087 20.76 12.2399 21.3912 13 21.83V23.75C13 24.7446 13.3951 25.6984 14.0983 26.4017C14.8016 27.1049 15.7554 27.5 16.75 27.5H26.75V36.25C26.75 36.5815 26.8817 36.8995 27.1161 37.1339C27.3505 37.3683 27.6685 37.5 28 37.5C28.3315 37.5 28.6495 37.3683 28.8839 37.1339C29.1183 36.8995 29.25 36.5815 29.25 36.25V27.5H39.25C40.2446 27.5 41.1984 27.1049 41.9017 26.4017C42.6049 25.6984 43 24.7446 43 23.75V21.83C43.7601 21.3912 44.3913 20.76 44.8301 19.9999C45.2689 19.2399 45.5 18.3777 45.5 17.5V11.25C45.5 10.9185 45.3683 10.6005 45.1339 10.3661C44.8995 10.1317 44.5815 10 44.25 10C43.9185 10 43.6005 10.1317 43.3661 10.3661C43.1317 10.6005 43 10.9185 43 11.25V17.5C43 18.163 42.7366 18.7989 42.2678 19.2678C41.7989 19.7366 41.163 20 40.5 20H15.5C14.837 20 14.2011 19.7366 13.7322 19.2678C13.2634 18.7989 13 18.163 13 17.5V11.25ZM15.5 22.5H40.5V23.75C40.5 24.0815 40.3683 24.3995 40.1339 24.6339C39.8995 24.8683 39.5815 25 39.25 25H16.75C16.4185 25 16.1005 24.8683 15.8661 24.6339C15.6317 24.3995 15.5 24.0815 15.5 23.75V22.5ZM16.75 40C16.4185 40 16.1005 40.1317 15.8661 40.3661C15.6317 40.6005 15.5 40.9185 15.5 41.25C15.5 41.5815 15.6317 41.8995 15.8661 42.1339C16.1005 42.3683 16.4185 42.5 16.75 42.5H20.5C20.8315 42.5 21.1495 42.3683 21.3839 42.1339C21.6183 41.8995 21.75 41.5815 21.75 41.25C21.75 40.9185 21.6183 40.6005 21.3839 40.3661C21.1495 40.1317 20.8315 40 20.5 40H16.75ZM34.25 41.25C34.25 40.9185 34.3817 40.6005 34.6161 40.3661C34.8505 40.1317 35.1685 40 35.5 40H39.25C39.5815 40 39.8995 40.1317 40.1339 40.3661C40.3683 40.6005 40.5 40.9185 40.5 41.25C40.5 41.5815 40.3683 41.8995 40.1339 42.1339C39.8995 42.3683 39.5815 42.5 39.25 42.5H35.5C35.1685 42.5 34.8505 42.3683 34.6161 42.1339C34.3817 41.8995 34.25 41.5815 34.25 41.25ZM28 42.5C28.3315 42.5 28.6495 42.3683 28.8839 42.1339C29.1183 41.8995 29.25 41.5815 29.25 41.25C29.25 40.9185 29.1183 40.6005 28.8839 40.3661C28.6495 40.1317 28.3315 40 28 40C27.6685 40 27.3505 40.1317 27.1161 40.3661C26.8817 40.6005 26.75 40.9185 26.75 41.25C26.75 41.5815 26.8817 41.8995 27.1161 42.1339C27.3505 42.3683 27.6685 42.5 28 42.5ZM28 45C28.3315 45 28.6495 45.1317 28.8839 45.3661C29.1183 45.6005 29.25 45.9185 29.25 46.25V51.25C29.25 51.5815 29.1183 51.8995 28.8839 52.1339C28.6495 52.3683 28.3315 52.5 28 52.5C27.6685 52.5 27.3505 52.3683 27.1161 52.1339C26.8817 51.8995 26.75 51.5815 26.75 51.25V46.25C26.75 45.9185 26.8817 45.6005 27.1161 45.3661C27.3505 45.1317 27.6685 45 28 45ZM25.135 44.635C25.3697 44.4003 25.5016 44.0819 25.5016 43.75C25.5016 43.4181 25.3697 43.0997 25.135 42.865C24.9003 42.6303 24.5819 42.4984 24.25 42.4984C23.9181 42.4984 23.5997 42.6303 23.365 42.865L19.615 46.615C19.3803 46.8497 19.2484 47.1681 19.2484 47.5C19.2484 47.8319 19.3803 48.1503 19.615 48.385C19.8497 48.6197 20.1681 48.7516 20.5 48.7516C20.8319 48.7516 21.1503 48.6197 21.385 48.385L25.135 44.635ZM30.865 42.865C30.7486 42.9811 30.6562 43.1191 30.5932 43.2709C30.5302 43.4228 30.4978 43.5856 30.4978 43.75C30.4978 43.9144 30.5302 44.0772 30.5932 44.2291C30.6562 44.3809 30.7486 44.5189 30.865 44.635L34.615 48.385C34.8497 48.6197 35.1681 48.7516 35.5 48.7516C35.8319 48.7516 36.1503 48.6197 36.385 48.385C36.6197 48.1503 36.7516 47.8319 36.7516 47.5C36.7516 47.1681 36.6197 46.8497 36.385 46.615L32.635 42.865C32.5189 42.7486 32.3809 42.6562 32.2291 42.5932C32.0772 42.5302 31.9144 42.4978 31.75 42.4978C31.5856 42.4978 31.4228 42.5302 31.2709 42.5932C31.1191 42.6562 30.9811 42.7486 30.865 42.865Z" fill="#7D8A58"/>
</svg>
