<svg width="71" height="64" viewBox="0 0 71 64" fill="none" xmlns="http://www.w3.org/2000/svg">
<path d="M10.5 53.75H60.5M38.625 48.5417V36.0417C38.625 36.0417 33.4167 32.9167 25.0833 32.9167C16.75 32.9167 11.5417 36.0417 11.5417 36.0417V48.5417M46.9583 10V16.25H40.7083V22.5H46.9583V28.75H53.2083V22.5H59.4583V16.25H53.2083V10H46.9583ZM24.55 28.75C24.55 28.75 18.8312 25.1083 18.8312 20.5542C18.8312 17.0312 21.6312 14.175 25.0854 14.175C28.5396 14.175 31.325 17.0312 31.325 20.5542C31.325 25.1042 25.625 28.75 25.625 28.75H24.55Z" stroke="#7D8A58" stroke-width="3"/>
</svg>
