<svg width="51" height="51" viewBox="0 0 51 51" fill="none" xmlns="http://www.w3.org/2000/svg">
<mask id="mask0_384_443" style="mask-type:alpha" maskUnits="userSpaceOnUse" x="0" y="0" width="51" height="51">
<rect x="0.5" y="0.277344" width="50" height="50" fill="#D9D9D9"/>
</mask>
<g mask="url(#mask0_384_443)">
<path d="M28.6254 26.1578C27.4502 26.1578 26.462 25.7572 25.6607 24.9559C24.8594 24.1546 24.4588 23.1664 24.4588 21.9912C24.4588 20.816 24.8594 19.8277 25.6607 19.0264C26.462 18.2251 27.4502 17.8245 28.6254 17.8245C29.8006 17.8245 30.7889 18.2251 31.5902 19.0264C32.3914 19.8277 32.7921 20.816 32.7921 21.9912C32.7921 23.1664 32.3914 24.1546 31.5902 24.9559C30.7889 25.7572 29.8006 26.1578 28.6254 26.1578ZM15.7248 32.8085C14.7993 32.8085 14.007 32.479 13.348 31.8199C12.6889 31.1609 12.3594 30.3686 12.3594 29.4431V14.5392C12.3594 13.6138 12.6889 12.8215 13.348 12.1624C14.007 11.5034 14.7993 11.1738 15.7248 11.1738H41.5261C42.4516 11.1738 43.2438 11.5034 43.9029 12.1624C44.5619 12.8215 44.8915 13.6138 44.8915 14.5392V29.4431C44.8915 30.3686 44.5619 31.1609 43.9029 31.8199C43.2438 32.479 42.4516 32.8085 41.5261 32.8085H15.7248ZM17.8081 30.7251H39.4427C39.4427 29.793 39.7722 28.999 40.4313 28.3433C41.0904 27.6876 41.8826 27.3598 42.8081 27.3598V16.6226C41.876 16.6226 41.082 16.293 40.4263 15.634C39.7706 14.975 39.4427 14.1827 39.4427 13.2572H17.8081C17.8081 14.1894 17.4786 14.9833 16.8195 15.639C16.1605 16.2947 15.3682 16.6226 14.4427 16.6226V27.3598C15.3749 27.3598 16.1688 27.6893 16.8245 28.3484C17.4803 29.0074 17.8081 29.7996 17.8081 30.7251ZM38.7216 39.0585H9.47474C8.54925 39.0585 7.757 38.729 7.09797 38.0699C6.43891 37.4109 6.10938 36.6186 6.10938 35.6931V17.3437H8.19271V35.6931C8.19271 36.0136 8.32625 36.3074 8.59333 36.5745C8.86045 36.8416 9.15425 36.9751 9.47474 36.9751H38.7216V39.0585ZM15.7248 30.7251H14.4427V13.2572H15.7248C15.3776 13.2572 15.0771 13.3841 14.8233 13.6378C14.5696 13.8915 14.4427 14.192 14.4427 14.5392V29.4431C14.4427 29.7903 14.5696 30.0908 14.8233 30.3446C15.0771 30.5983 15.3776 30.7251 15.7248 30.7251Z" fill="#7D8A58"/>
</g>
</svg>
